<svg width="150" height="38" xmlns="http://www.w3.org/2000/svg" xmlns:svg="http://www.w3.org/2000/svg">
 <!-- Created with SVG-edit - https://github.com/SVG-Edit/svgedit-->
 <g class="layer">
  <title>Layer 1</title>
  <text fill="#000000" font-family="Serif" font-size="3" id="svg_2" stroke-width="0" text-anchor="middle" transform="matrix(5.7975 0 0 6.49079 62.5877 -1013.47)" x="-6.93973" xml:space="preserve" y="159.14501">A</text>
  <path d="m36.05661,24.75473c45.46728,23.44938 52.44237,4.64564 53.47572,2.21221c1.03335,-2.43343 -2.58337,5.53051 -16.03151,5.14233c-13.44814,-0.38818 -18.58563,-2.26646 -18.58563,-2.26646" fill="#ff0000" id="svg_6" stroke-width="0"/>
  <text fill="#000000" font-family="Serif" font-size="3" id="svg_5" stroke-width="0" text-anchor="middle" transform="matrix(6.17378 0 0 6.54901 48.0678 -1021.77)" x="2.55183" xml:space="preserve" y="158.97519">E</text>
  <text fill="#ff0000" font-family="Serif" font-size="3" font-weight="bold" id="svg_8" stroke-width="0" text-anchor="middle" transform="matrix(5.61168 0 0 6.60765 64.3324 -1031.06)" x="-3.7439" xml:space="preserve" y="158.98117">R</text>
  <text fill="#ff0000" font-family="Serif" font-size="3" font-weight="bold" id="svg_9" stroke-width="0" text-anchor="middle" transform="matrix(5.86091 0 0 6.60765 59.966 -1031.42)" x="4.4898" xml:space="preserve" y="159.03261">K</text>
  <text fill="#000000" font-family="Serif" font-size="3" id="svg_10" stroke-width="0" text-anchor="middle" transform="matrix(5.52865 0 0 6.66607 77.8993 -1040.15)" x="5.83813" xml:space="preserve" y="158.89373">A</text>
  <text fill="#000000" font-family="Serif" font-size="3" id="svg_11" stroke-width="0" text-anchor="middle" transform="matrix(6.19974 0 0 6.68677 29.4623 -1044.33)" x="16.42849" xml:space="preserve" y="158.9164">Y</text>
 </g>
 
 </svg>