<svg xmlns="http://www.w3.org/2000/svg" xmlns:xlink="http://www.w3.org/1999/xlink" x="0px" y="0px" width="40px" height="40px" viewBox="0 0 122.88 107.91" style="enable-background:new 0 0 122.88 107.91" xml:space="preserve">
	<g>
		<path d="M99.09,0.05c3.23,0,6.27,0.6,9.13,1.75c2.81,1.15,5.4,2.9,7.7,5.21c2.31,2.31,4.06,4.89,5.21,7.7 c1.15,2.81,1.75,5.86,1.75,9.13l0,35.87c0,3.27-0.6,6.32-1.75,9.13s-2.9,5.39-5.21,7.7s-4.89,4.01-7.7,5.21 c-2.81,1.15-5.85,1.75-9.13,1.75H76.26c-2.07,2.63-4.33,5.12-6.73,7.38c-2.86,2.67-5.9,5.07-9.18,7.19 c-3.27,2.17-6.78,4.06-10.51,5.67c-3.69,1.61-7.65,2.95-11.8,4.06c-1.2,0.32-2.49-0.05-3.37-1.01c-1.24-1.38-1.11-3.5,0.28-4.75 c1.94-1.71,3.6-3.46,4.93-5.21c1.29-1.71,2.35-3.46,3.14-5.26v-0.05c0.88-1.94,1.66-3.92,2.35-5.9c0.23-0.69,0.46-1.43,0.69-2.17 H23.79c-3.23,0-6.27-0.6-9.13-1.75c-2.81-1.15-5.39-2.9-7.7-5.21c-2.31-2.3-4.06-4.89-5.21-7.7C0.6,65.93,0,62.89,0,59.66V23.79 c0-3.23,0.6-6.27,1.75-9.13c1.15-2.81,2.9-5.39,5.21-7.7c2.31-2.31,4.89-4.06,7.7-5.21C17.48,0.6,20.52,0,23.79,0 C48.89,0,73.97,0.05,99.09,0.05L99.09,0.05z M16.64,47.32l8.02-0.58c0.17,1.49,0.53,2.64,1.06,3.41c0.87,1.27,2.11,1.91,3.73,1.91 c1.2,0,2.13-0.33,2.78-0.98c0.65-0.65,0.98-1.41,0.98-2.26c0-0.81-0.31-1.55-0.92-2.19c-0.62-0.65-2.06-1.25-4.32-1.83 c-3.71-0.95-6.34-2.23-7.92-3.82c-1.59-1.59-2.39-3.6-2.39-6.07c0-1.61,0.41-3.14,1.22-4.57c0.82-1.44,2.04-2.57,3.67-3.39 c1.63-0.82,3.88-1.23,6.73-1.23c3.5,0,6.16,0.75,7.99,2.25c1.83,1.5,2.92,3.88,3.27,7.14l-7.95,0.54 c-0.21-1.43-0.66-2.47-1.33-3.11c-0.68-0.65-1.62-0.98-2.81-0.98c-0.98,0-1.73,0.24-2.22,0.72c-0.5,0.48-0.75,1.06-0.75,1.75 c0,0.5,0.21,0.94,0.61,1.35c0.39,0.41,1.33,0.79,2.82,1.16c3.7,0.91,6.34,1.85,7.93,2.78c1.6,0.94,2.76,2.1,3.49,3.49 c0.72,1.38,1.09,2.94,1.09,4.66c0,2.01-0.48,3.88-1.45,5.58c-0.97,1.7-2.33,3-4.07,3.88c-1.74,0.88-3.93,1.32-6.58,1.32 c-4.65,0-7.87-1.03-9.66-3.09C17.89,53.11,16.88,50.49,16.64,47.32L16.64,47.32z M46.42,26.26h11.15l4.25,19.15l4.26-19.15h11.1 v31.47h-6.92V33.74l-5.34,23.99h-6.27l-5.32-23.99v23.99h-6.92V26.26L46.42,26.26z M81.43,47.32l8.03-0.58 c0.17,1.49,0.53,2.64,1.06,3.41c0.87,1.27,2.12,1.91,3.73,1.91c1.2,0,2.13-0.33,2.78-0.98c0.65-0.65,0.98-1.41,0.98-2.26 c0-0.81-0.31-1.55-0.92-2.19c-0.62-0.64-2.06-1.25-4.32-1.83c-3.71-0.95-6.34-2.23-7.92-3.82c-1.58-1.59-2.39-3.6-2.39-6.07 c0-1.61,0.41-3.14,1.22-4.57c0.81-1.44,2.04-2.57,3.67-3.39c1.64-0.82,3.88-1.23,6.73-1.23c3.5,0,6.16,0.75,7.99,2.25 c1.83,1.5,2.92,3.88,3.27,7.14l-7.95,0.54c-0.21-1.43-0.66-2.47-1.33-3.11c-0.68-0.65-1.62-0.98-2.81-0.98 c-0.98,0-1.73,0.24-2.22,0.72c-0.5,0.48-0.75,1.06-0.75,1.75c0,0.5,0.21,0.94,0.61,1.35c0.39,0.41,1.33,0.79,2.82,1.16 c3.69,0.91,6.34,1.85,7.93,2.78c1.6,0.94,2.76,2.1,3.49,3.49c0.72,1.38,1.09,2.94,1.09,4.66c0,2.01-0.48,3.88-1.45,5.58 c-0.97,1.7-2.33,3-4.07,3.88c-1.74,0.88-3.93,1.32-6.58,1.32c-4.65,0-7.87-1.03-9.66-3.09C82.68,53.11,81.67,50.49,81.43,47.32 L81.43,47.32z M23.84,6.78c-2.4,0-4.61,0.42-6.59,1.25c-1.98,0.83-3.83,2.07-5.49,3.73c-1.66,1.66-2.9,3.5-3.73,5.49 c-0.83,1.98-1.24,4.2-1.24,6.59v35.87c0,2.4,0.42,4.61,1.24,6.59c0.83,1.98,2.08,3.83,3.73,5.49c1.71,1.66,3.55,2.95,5.53,3.73 c1.98,0.83,4.15,1.25,6.55,1.25h26.7c1.85,0,3.37,1.52,3.37,3.37c0,0.42-0.09,0.78-0.18,1.15c-0.6,2.21-1.24,4.43-1.98,6.55 c-0.78,2.26-1.61,4.38-2.54,6.46c-0.46,1.06-1.01,2.08-1.61,3.14c3.23-1.43,6.27-3.09,9.08-4.93c2.95-1.94,5.72-4.1,8.25-6.46 c2.58-2.4,4.89-5.03,7.01-7.84c0.65-0.88,1.66-1.34,2.67-1.34l24.48,0c2.4,0,4.56-0.42,6.55-1.25c1.98-0.83,3.83-2.07,5.53-3.74 c1.66-1.66,2.9-3.5,3.73-5.49c0.83-1.98,1.25-4.19,1.25-6.59V23.93c0-2.4-0.42-4.61-1.25-6.59c-0.83-1.98-2.07-3.83-3.73-5.49 c-1.66-1.66-3.51-2.91-5.49-3.73c-1.98-0.83-4.2-1.24-6.59-1.24C75.22,6.87,47.79,6.78,23.84,6.78L23.84,6.78z"/>
	</g>
</svg>